<?xml version="1.0" encoding="UTF-8"?>
<svg width="120px" height="50px" viewBox="0 0 120 50" version="1.1" xmlns="http://www.w3.org/2000/svg" xmlns:xlink="http://www.w3.org/1999/xlink">
    <!-- Generator: Sketch 54.1 (76490) - https://sketchapp.com -->
    <title>trustmark/engagement/certified</title>
    <desc>Created with Sketch.</desc>
    <g id="trustmark/engagement/certified" stroke="none" stroke-width="1" fill="none" fill-rule="evenodd">
        <g id="mixin/trustmark/background" fill="#FFFFFF" stroke="#000000" stroke-opacity="0.1">
            <rect id="background" x="0.5" y="0.5" width="119" height="49" rx="2"></rect>
        </g>
        <g id="logo/trustedsite" transform="translate(7.000000, 8.000000)">
            <g id="logo/ts-full-color">
                <g id="Logo">
                    <path d="M104.830662,6.09231179 L104.830662,6.7689641 L104.430138,6.7689641 L104.430138,5.08758564 C104.58824,5.05682872 104.809581,5.0363241 105.094164,5.0363241 C105.420906,5.0363241 105.568467,5.08758564 105.694948,5.15935179 C105.789809,5.23111795 105.86359,5.36439795 105.86359,5.52843487 C105.86359,5.71297641 105.716029,5.85650872 105.505227,5.91802256 L105.505227,5.93852718 C105.673868,6.00004103 105.768729,6.12306872 105.821429,6.34861949 C105.87413,6.60492718 105.90575,6.70745026 105.94791,6.7689641 L105.515767,6.7689641 C105.463067,6.70745026 105.431446,6.55366564 105.378746,6.35887179 C105.347126,6.17433026 105.241725,6.09231179 105.020383,6.09231179 L104.830662,6.09231179 Z M104.841202,5.33364103 L104.841202,5.81549949 L105.030923,5.81549949 C105.252265,5.81549949 105.431446,5.74373333 105.431446,5.5694441 C105.431446,5.41565949 105.315505,5.31313641 105.062543,5.31313641 C104.957143,5.31313641 104.883362,5.32338872 104.841202,5.33364103 Z M105.104704,4.20588718 C106.106012,4.20588718 106.875438,4.95430564 106.875438,5.88726564 C106.875438,6.84073026 106.106012,7.58914872 105.104704,7.58914872 C104.113936,7.58914872 103.32343,6.84073026 103.32343,5.88726564 C103.32343,4.95430564 104.113936,4.20588718 105.104704,4.20588718 Z M105.104704,4.54421333 C104.335278,4.54421333 103.766113,5.14909949 103.766113,5.88726564 C103.766113,6.6356841 104.335278,7.23031795 105.115244,7.23031795 C105.87413,7.23031795 106.432754,6.6356841 106.432754,5.89751795 C106.432754,5.14909949 105.87413,4.54421333 105.104704,4.54421333 Z" id="®" fill="#80C600"></path>
                    <path d="M100.899961,9.29733671 C100.899961,8.67432915 100.627359,7.63066221 99.4335545,7.63066221 C98.3422325,7.63066221 97.8985982,8.60710459 97.8302767,9.29733671 L100.899961,9.29733671 Z M97.8475849,11.0483229 C97.932759,12.1086274 98.990148,12.6138233 100.201033,12.6138233 C101.08739,12.6138233 101.803855,12.4960117 102.503011,12.277026 L102.843936,14.0111499 C101.991284,14.3477224 100.951203,14.5161211 99.8254921,14.5161211 C96.9949326,14.5161211 95.3748022,12.9000336 95.3748022,10.3243661 C95.3748022,8.23658259 96.6879414,5.93026302 99.5868224,5.93026302 C102.281194,5.93026302 103.304423,8.00095938 103.304423,10.037931 C103.304423,10.4759024 103.253409,10.8628371 103.219248,11.0483229 L97.8475849,11.0483229 Z" id="Fill-19" fill="#80C600"></path>
                    <path d="M93.1237229,3.75854996 L93.1237229,6.11545657 L94.982523,6.11545657 L94.982523,8.00111676 L93.1237229,8.00111676 L93.1237229,10.9808061 C93.1237229,11.9741108 93.3626204,12.4287197 94.1469511,12.4287197 C94.4710227,12.4287197 94.7267729,12.394995 94.9142015,12.3612703 L94.9312819,14.2972927 C94.5901299,14.4319667 93.9763751,14.5162784 93.2430577,14.5162784 C92.4074859,14.5162784 91.7083292,14.2298433 91.2990835,13.809184 C90.821744,13.3208504 90.5828465,12.529669 90.5828465,11.3679656 L90.5828465,8.00111676 L89.4744441,8.00111676 L89.4744441,6.11545657 L90.5828465,6.11545657 L90.5828465,4.33097047 L93.1237229,3.75854996 Z" id="Fill-18" fill="#80C600"></path>
                    <path d="M85.7908452,14.3478348 L88.3829627,14.3478348 L88.3829627,6.11541161 L85.7908452,6.11541161 L85.7908452,14.3478348 Z M88.4681368,3.82595439 C88.4681368,4.53304885 87.9227035,5.10524453 87.0700513,5.10524453 C86.251332,5.10524453 85.705671,4.53304885 85.7227514,3.82595439 C85.705671,3.08513522 86.251332,2.52957706 87.0871317,2.52957706 C87.9227035,2.52957706 88.4512842,3.08513522 88.4681368,3.82595439 L88.4681368,3.82595439 Z" id="Fill-16" fill="#80C600"></path>
                    <path d="M77.1791485,11.7047179 C77.8780774,12.0581528 78.9525468,12.4118124 80.0607214,12.4118124 C81.2547534,12.4118124 81.8855885,11.9237036 81.8855885,11.1828845 C81.8855885,10.47579 81.3401553,10.0715433 79.9584669,9.58343455 C78.0486534,8.92692713 76.8038358,7.88303536 76.8038358,6.23344804 C76.8038358,4.29742564 78.4408188,2.81578731 81.1522712,2.81578731 C82.4485577,2.81578731 83.4032367,3.08513522 84.0855407,3.38820783 L83.5054912,5.45890418 C83.0452321,5.24014332 82.2267405,4.92020837 81.1012578,4.92020837 C79.9755473,4.92020837 79.4298863,5.42517949 79.4298863,6.01446235 C79.4298863,6.73841916 80.0780295,7.05812928 81.5615169,7.61391228 C83.5908931,8.35450661 84.5457998,9.39839838 84.5457998,10.9976235 C84.5457998,12.8999212 83.0623124,14.5162335 79.9074535,14.5162335 C78.5945422,14.5162335 77.2982557,14.1794362 76.6505679,13.8260013 L77.1791485,11.7047179 Z" id="Fill-14" fill="#80C600"></path>
                    <path d="M72.4377962,9.60031938 C72.4377962,9.46564543 72.4207159,9.28038443 72.4036355,9.1459353 C72.2501399,8.45547835 71.6873985,7.88305784 70.8859874,7.88305784 C69.7094912,7.88305784 69.095281,8.92694961 69.095281,10.2233269 C69.095281,11.6206535 69.7946653,12.4959218 70.868907,12.4959218 C71.6193047,12.4959218 72.2159791,11.9909507 72.3694747,11.2669939 C72.4207159,11.0817329 72.4377962,10.8966967 72.4377962,10.677711 L72.4377962,9.60031938 Z M75.029686,2.39492559 L75.029686,11.8900014 C75.029686,12.8158568 75.0638467,13.7922991 75.0980075,14.3478573 L72.7958009,14.3478573 L72.676466,13.1355669 L72.6423052,13.1355669 C72.1137246,14.061647 71.1075767,14.5331183 70.0331074,14.5331183 C68.0552001,14.5331183 66.4692305,12.8664438 66.4692305,10.3074138 C66.4523778,7.52962302 68.2086957,5.93017309 70.2039111,5.93017309 C71.2271393,5.93017309 72.0285505,6.28383274 72.4036355,6.85625325 L72.4377962,6.85625325 L72.4377962,2.39492559 L75.029686,2.39492559 Z" id="Fill-12" fill="#323835"></path>
                    <path d="M63.433456,9.29733671 C63.433456,8.67432915 63.1606255,7.63066221 61.9670489,7.63066221 C60.8757269,7.63066221 60.4320927,8.60710459 60.3637712,9.29733671 L63.433456,9.29733671 Z M60.3810793,11.0483229 C60.4662534,12.1086274 61.5234147,12.6138233 62.7342993,12.6138233 C63.6211123,12.6138233 64.3373493,12.4960117 65.036506,12.277026 L65.3774302,14.0111499 C64.524778,14.3477224 63.4846971,14.5161211 62.3589866,14.5161211 C59.5284271,14.5161211 57.9082967,12.9000336 57.9082967,10.3243661 C57.9082967,8.23658259 59.2214358,5.93026302 62.1203168,5.93026302 C64.8146888,5.93026302 65.8379171,8.00095938 65.8379171,10.037931 C65.8379171,10.4759024 65.786676,10.8628371 65.752743,11.0483229 L60.3810793,11.0483229 Z" id="Fill-10" fill="#323835"></path>
                    <path d="M55.6912414,3.75854996 L55.6912414,6.11545657 L57.5500416,6.11545657 L57.5500416,8.00111676 L55.6912414,8.00111676 L55.6912414,10.9808061 C55.6912414,11.9741108 55.9301389,12.4287197 56.7144697,12.4287197 C57.0385413,12.4287197 57.2942914,12.394995 57.4817201,12.3612703 L57.4988004,14.2972927 C57.1576484,14.4319667 56.5438937,14.5162784 55.8105763,14.5162784 C54.9750044,14.5162784 54.2758478,14.2298433 53.866602,13.809184 C53.3892625,13.3208504 53.1505928,12.529669 53.1505928,11.3679656 L53.1505928,8.00111676 L52.0421904,8.00111676 L52.0421904,6.11545657 L53.1505928,6.11545657 L53.1505928,4.33097047 L55.6912414,3.75854996 Z" id="Fill-8" fill="#323835"></path>
                    <path d="M45.6127051,12.1087173 C46.0902723,12.3949276 47.0793398,12.7317249 47.8465902,12.7317249 C48.6311487,12.7317249 48.9552203,12.4621521 48.9552203,12.0414928 C48.9552203,11.6206086 48.6994702,11.4184852 47.7274831,11.0987751 C46.0050982,10.5263546 45.3398746,9.60027441 45.3569549,8.62383204 C45.3569549,7.09205633 46.6871744,5.93035296 48.7504836,5.93035296 C49.7224707,5.93035296 50.5922033,6.14911382 51.1037036,6.40182421 L50.6432167,8.16944796 C50.2681317,7.96732462 49.5518947,7.69797671 48.8356577,7.69797671 C48.2048226,7.69797671 47.8465902,7.95046227 47.8465902,8.37134648 C47.8465902,8.75873082 48.1706618,8.96062934 49.1938901,9.31406416 C50.7798597,9.8529848 51.4448556,10.6441662 51.461936,11.8562318 C51.461936,13.3882323 50.233971,14.516211 47.8465902,14.516211 C46.7552682,14.516211 45.7832811,14.2803629 45.1524459,13.9437905 L45.6127051,12.1087173 Z" id="Fill-6" fill="#323835"></path>
                    <path d="M44.1800033,11.7047179 C44.1800033,12.7821096 44.2139363,13.6578275 44.2483248,14.3478348 L41.9973593,14.3478348 L41.8777967,13.1863563 L41.8267833,13.1863563 C41.5027117,13.6913274 40.7181532,14.5330958 39.2175854,14.5330958 C37.5293613,14.5330958 36.2845437,13.489204 36.2845437,10.9472613 L36.2845437,6.11541161 L38.8937416,6.11541161 L38.8937416,10.5432394 C38.8937416,11.7382178 39.2859069,12.4621746 40.1898003,12.4621746 C40.9058096,12.4621746 41.3150553,11.9740659 41.4856313,11.570044 C41.5539528,11.4185077 41.5708055,11.2163843 41.5708055,11.0144858 L41.5708055,6.11541161 L44.1800033,6.11541161 L44.1800033,11.7047179 Z" id="Fill-4" fill="#323835"></path>
                    <path d="M30.0600001,8.82582049 C30.0600001,7.6137549 30.026067,6.82257352 29.9919063,6.11547906 L32.2257914,6.11547906 L32.3109656,7.63061725 L32.3792871,7.63061725 C32.8056132,6.43541401 33.8286137,5.93021806 34.6300248,5.93021806 C34.8689223,5.93021806 34.9882572,5.93021806 35.1759136,5.96394275 L35.1759136,8.37143641 C34.9882572,8.33771171 34.7666678,8.30398702 34.4767569,8.30398702 C33.5218502,8.30398702 32.8737069,8.80918297 32.7031309,9.60036435 C32.6691979,9.76853816 32.6518898,9.97066151 32.6518898,10.1727849 L32.6518898,14.3479023 L30.0600001,14.3479023 L30.0600001,8.82582049 Z" id="Fill-2" fill="#323835"></path>
                    <polygon id="Fill-1" fill="#323835" points="24.4153693 5.15585406 21.3286042 5.15585406 21.3286042 3.0010708 30.1621179 3.0010708 30.1621179 5.15585406 27.0243394 5.15585406 27.0243394 14.3478573 24.4153693 14.3478573"></polygon>
                    <path d="M12.9328868,17.0871795 L0,17.0871795 L0,4.50756597 C0,2.01806874 2.07474217,0 4.63391816,0 L17.566805,0 L17.566805,12.5796135 C17.566805,15.0691107 15.4920628,17.0871795 12.9328868,17.0871795" id="Fill-20" fill="#80C600"></path>
                    <path d="M13.9737725,3.50694124 C13.8305251,3.36529752 13.5957269,3.36529752 13.4522518,3.50694124 L6.9339257,9.94206297 C6.79045057,10.0837067 6.5558801,10.0837067 6.4126327,9.94206297 L4.03937172,7.59932073 C3.89612432,7.457677 3.66132612,7.457677 3.51785098,7.59932073 L1.95351649,9.14368699 C1.81026909,9.28533072 1.81026909,9.51690696 1.95351649,9.65855069 L6.4126327,14.0605229 C6.5558801,14.2019418 6.79045057,14.2019418 6.9339257,14.0605229 L15.5383347,5.5661712 C15.6815821,5.42452748 15.6815821,5.19295123 15.5383347,5.0513075 L13.9737725,3.50694124 Z" id="Fill-21" fill="#FEFEFE"></path>
                </g>
            </g>
        </g>
        <path d="M1,32 L119,32 L119,48 C119,48.5522847 118.552285,49 118,49 L2,49 C1.44771525,49 1,48.5522847 1,48 L1,32 Z" id="Rectangle" fill="#F2F3F3" fill-rule="nonzero"></path>
        <path d="M10.7571878,37.7597656 C10.0866116,37.7597656 9.5592731,37.9973935 9.17515659,38.4726562 C8.79104009,38.947919 8.59898472,39.603837 8.59898472,40.4404297 C8.59898472,41.3160851 8.78371594,41.9785134 9.15318394,42.4277344 C9.52265193,42.8769554 10.0573146,43.1015625 10.7571878,43.1015625 C11.0599237,43.1015625 11.3528896,43.0714521 11.6360941,43.0112305 C11.9192986,42.9510088 12.213892,42.8736984 12.5198832,42.7792969 L12.5198832,43.7802734 C11.9599845,43.991863 11.3252252,44.0976562 10.6155863,44.0976562 C9.57065918,44.0976562 8.76825835,43.7810904 8.20835972,43.1479492 C7.64846109,42.514808 7.36851597,41.6090554 7.36851597,40.4306641 C7.36851597,39.6884729 7.50441956,39.0390653 7.77623081,38.4824219 C8.04804207,37.9257785 8.44110454,37.4993504 8.95543003,37.203125 C9.46975552,36.9068996 10.0735906,36.7587891 10.7669535,36.7587891 C11.4961238,36.7587891 12.1699452,36.9117823 12.7884378,37.2177734 L12.368516,38.1894531 C12.1276293,38.0755203 11.8729118,37.9754236 11.6043558,37.8891602 C11.3357998,37.8028967 11.0534133,37.7597656 10.7571878,37.7597656 Z M19.266055,44 L15.2279691,44 L15.2279691,36.8613281 L19.266055,36.8613281 L19.266055,37.8476562 L16.3949612,37.8476562 L16.3949612,39.7910156 L19.0853909,39.7910156 L19.0853909,40.7675781 L16.3949612,40.7675781 L16.3949612,43.0087891 L19.266055,43.0087891 L19.266055,44 Z M23.1460159,40.1816406 L23.9565628,40.1816406 C24.5001853,40.1816406 24.8940615,40.0807302 25.1382034,39.8789062 C25.3823452,39.6770823 25.5044143,39.3776062 25.5044143,38.9804688 C25.5044143,38.5768209 25.3725797,38.2871103 25.1089065,38.1113281 C24.8452333,37.935546 24.4481019,37.8476562 23.9175003,37.8476562 L23.1460159,37.8476562 L23.1460159,40.1816406 Z M23.1460159,41.1484375 L23.1460159,44 L21.9790237,44 L21.9790237,36.8613281 L23.9956253,36.8613281 C24.9168538,36.8613281 25.5988131,37.0338524 26.0415237,37.3789062 C26.4842342,37.7239601 26.7055862,38.2447882 26.7055862,38.9414062 C26.7055862,39.8300826 26.2433512,40.4632143 25.3188674,40.8408203 L27.335469,44 L26.007344,44 L24.2983596,41.1484375 L23.1460159,41.1484375 Z M32.0064455,44 L30.8394533,44 L30.8394533,37.8623047 L28.739844,37.8623047 L28.739844,36.8613281 L34.1060549,36.8613281 L34.1060549,37.8623047 L32.0064455,37.8623047 L32.0064455,44 Z M36.3698049,44 L36.3698049,36.8613281 L37.536797,36.8613281 L37.536797,44 L36.3698049,44 Z M41.7487892,44 L40.5915626,44 L40.5915626,36.8613281 L44.6198829,36.8613281 L44.6198829,37.8476562 L41.7487892,37.8476562 L41.7487892,40.0791016 L44.4392189,40.0791016 L44.4392189,41.0703125 L41.7487892,41.0703125 L41.7487892,44 Z M47.0838282,44 L47.0838282,36.8613281 L48.2508204,36.8613281 L48.2508204,44 L47.0838282,44 Z M55.3436719,44 L51.305586,44 L51.305586,36.8613281 L55.3436719,36.8613281 L55.3436719,37.8476562 L52.4725782,37.8476562 L52.4725782,39.7910156 L55.1630079,39.7910156 L55.1630079,40.7675781 L52.4725782,40.7675781 L52.4725782,43.0087891 L55.3436719,43.0087891 L55.3436719,44 Z M63.8623047,40.3623047 C63.8623047,41.540696 63.5351595,42.4415659 62.8808594,43.0649414 C62.2265592,43.6883169 61.2841858,44 60.0537109,44 L58.0566406,44 L58.0566406,36.8613281 L60.2636719,36.8613281 C61.3997453,36.8613281 62.2835255,37.1673146 62.9150391,37.7792969 C63.5465526,38.3912791 63.8623047,39.2522731 63.8623047,40.3623047 Z M62.6318359,40.4013672 C62.6318359,38.6923743 61.8326903,37.8378906 60.234375,37.8378906 L59.2236328,37.8378906 L59.2236328,43.0185547 L60.0537109,43.0185547 C61.7724695,43.0185547 62.6318359,42.1461676 62.6318359,40.4013672 Z M74.4493749,42.0615234 C74.4493749,42.6962922 74.219885,43.1943341 73.7608984,43.5556641 C73.3019117,43.916994 72.66878,44.0976562 71.8614843,44.0976562 C71.0541886,44.0976562 70.3933879,43.972332 69.8790624,43.7216797 L69.8790624,42.6181641 C70.2045849,42.7711596 70.5504473,42.8916011 70.9166601,42.9794922 C71.2828728,43.0673833 71.6238525,43.1113281 71.9396093,43.1113281 C72.4018512,43.1113281 72.7428308,43.0234384 72.9625585,42.8476562 C73.1822862,42.6718741 73.2921484,42.4358739 73.2921484,42.1396484 C73.2921484,41.87272 73.1912379,41.6464853 72.989414,41.4609375 C72.7875901,41.2753897 72.3709276,41.0556653 71.739414,40.8017578 C71.0883691,40.5380846 70.6293893,40.2369809 70.3624609,39.8984375 C70.0955324,39.5598941 69.9620702,39.1529972 69.9620702,38.6777344 C69.9620702,38.0820283 70.1736567,37.613283 70.5968359,37.2714844 C71.0200151,36.9296858 71.5880432,36.7587891 72.3009374,36.7587891 C72.9845346,36.7587891 73.6648663,36.9085271 74.341953,37.2080078 L73.9708593,38.1601562 C73.3360905,37.8932278 72.7696899,37.7597656 72.2716405,37.7597656 C71.8940345,37.7597656 71.607579,37.8419588 71.4122655,38.0063477 C71.2169521,38.1707365 71.1192968,38.3880195 71.1192968,38.6582031 C71.1192968,38.8437509 71.1583589,39.0024407 71.2364843,39.1342773 C71.3146097,39.2661139 71.4431891,39.3906244 71.6222265,39.5078125 C71.8012638,39.6250006 72.1235262,39.7796214 72.5890234,39.9716797 C73.1131145,40.1897797 73.4972253,40.3932282 73.7413671,40.5820312 C73.9855089,40.7708343 74.1645436,40.9840483 74.2784765,41.2216797 C74.3924093,41.4593111 74.4493749,41.7392562 74.4493749,42.0615234 Z M81.0392967,44 L77.0012108,44 L77.0012108,36.8613281 L81.0392967,36.8613281 L81.0392967,37.8476562 L78.168203,37.8476562 L78.168203,39.7910156 L80.8586327,39.7910156 L80.8586327,40.7675781 L78.168203,40.7675781 L78.168203,43.0087891 L81.0392967,43.0087891 L81.0392967,44 Z M86.7893748,37.7597656 C86.1187986,37.7597656 85.5914601,37.9973935 85.2073436,38.4726562 C84.8232271,38.947919 84.6311717,39.603837 84.6311717,40.4404297 C84.6311717,41.3160851 84.8159029,41.9785134 85.1853709,42.4277344 C85.5548389,42.8769554 86.0895015,43.1015625 86.7893748,43.1015625 C87.0921107,43.1015625 87.3850765,43.0714521 87.6682811,43.0112305 C87.9514856,42.9510088 88.246079,42.8736984 88.5520701,42.7792969 L88.5520701,43.7802734 C87.9921715,43.991863 87.3574122,44.0976562 86.6477733,44.0976562 C85.6028462,44.0976562 84.8004453,43.7810904 84.2405467,43.1479492 C83.6806481,42.514808 83.400703,41.6090554 83.400703,40.4306641 C83.400703,39.6884729 83.5366065,39.0390653 83.8084178,38.4824219 C84.0802291,37.9257785 84.4732915,37.4993504 84.987617,37.203125 C85.5019425,36.9068996 86.1057776,36.7587891 86.7991405,36.7587891 C87.5283108,36.7587891 88.2021322,36.9117823 88.8206248,37.2177734 L88.400703,38.1894531 C88.1598163,38.0755203 87.9050988,37.9754236 87.6365428,37.8891602 C87.3679868,37.8028967 87.0856003,37.7597656 86.7893748,37.7597656 Z M96.8558592,36.8613281 L96.8558592,41.4804688 C96.8558592,42.0078151 96.7427418,42.4692363 96.5165037,42.8647461 C96.2902656,43.2602559 95.9631204,43.5646148 95.5350584,43.777832 C95.1069963,43.9910492 94.59512,44.0976562 93.9994138,44.0976562 C93.1139928,44.0976562 92.4255231,43.8632836 91.9339842,43.3945312 C91.4424452,42.9257789 91.1966795,42.2812541 91.1966795,41.4609375 L91.1966795,36.8613281 L92.3685545,36.8613281 L92.3685545,41.3779297 C92.3685545,41.9671253 92.5052719,42.4016913 92.7787107,42.6816406 C93.0521496,42.9615899 93.4720673,43.1015625 94.0384763,43.1015625 C95.1387423,43.1015625 95.688867,42.5237688 95.688867,41.3681641 L95.688867,36.8613281 L96.8558592,36.8613281 Z M101.019023,40.1816406 L101.82957,40.1816406 C102.373193,40.1816406 102.767069,40.0807302 103.011211,39.8789062 C103.255353,39.6770823 103.377422,39.3776062 103.377422,38.9804688 C103.377422,38.5768209 103.245587,38.2871103 102.981914,38.1113281 C102.718241,37.935546 102.321109,37.8476562 101.790508,37.8476562 L101.019023,37.8476562 L101.019023,40.1816406 Z M101.019023,41.1484375 L101.019023,44 L99.852031,44 L99.852031,36.8613281 L101.868633,36.8613281 C102.789861,36.8613281 103.47182,37.0338524 103.914531,37.3789062 C104.357242,37.7239601 104.578593,38.2447882 104.578593,38.9414062 C104.578593,39.8300826 104.116359,40.4632143 103.191875,40.8408203 L105.208476,44 L103.880351,44 L102.171367,41.1484375 L101.019023,41.1484375 Z M111.451718,44 L107.413633,44 L107.413633,36.8613281 L111.451718,36.8613281 L111.451718,37.8476562 L108.580625,37.8476562 L108.580625,39.7910156 L111.271054,39.7910156 L111.271054,40.7675781 L108.580625,40.7675781 L108.580625,43.0087891 L111.451718,43.0087891 L111.451718,44 Z" id="CERTIFIEDSECURE" fill="#323835" fill-rule="nonzero" opacity="0.600000024"></path>
    </g>
</svg>